<?xml version="1.0" encoding="utf-8"?>
<!-- Generator: Adobe Illustrator 27.4.0, SVG Export Plug-In . SVG Version: 6.00 Build 0)  -->
<svg version="1.1" xmlns="http://www.w3.org/2000/svg" xmlns:xlink="http://www.w3.org/1999/xlink" x="0px" y="0px"
	 viewBox="0 0 165 164.93" style="enable-background:new 0 0 165 164.93;" xml:space="preserve">
<style type="text/css">
	.st0{display:none;}
	.st1{display:inline;}
	.st2{clip-path:url(#SVGID_00000104693965628343647950000000927513939626270107_);fill:#A4CFE9;}
	.st3{clip-path:url(#SVGID_00000104693965628343647950000000927513939626270107_);}
	.st4{fill:#E4EBF4;}
	.st5{fill-rule:evenodd;clip-rule:evenodd;fill:#E4EBF4;}
	.st6{fill:none;stroke:#E4EBF4;stroke-width:0.6254;stroke-linejoin:round;stroke-miterlimit:3.8637;}
	.st7{clip-path:url(#SVGID_00000104693965628343647950000000927513939626270107_);fill:#E4EBF4;}

		.st8{clip-path:url(#SVGID_00000104693965628343647950000000927513939626270107_);fill-rule:evenodd;clip-rule:evenodd;fill:#E4EBF4;}
	.st9{opacity:0.5;clip-path:url(#SVGID_00000104693965628343647950000000927513939626270107_);}

		.st10{clip-path:url(#SVGID_00000104693965628343647950000000927513939626270107_);fill:none;stroke:#FFC50B;stroke-width:0.6254;stroke-miterlimit:10;}

		.st11{clip-path:url(#SVGID_00000104693965628343647950000000927513939626270107_);fill-rule:evenodd;clip-rule:evenodd;fill:#E0E1E0;stroke:#A4CFE9;stroke-width:0.1744;stroke-linejoin:round;stroke-miterlimit:3.8637;}

		.st12{clip-path:url(#SVGID_00000104693965628343647950000000927513939626270107_);fill:none;stroke:#A4CFE9;stroke-width:0.1744;stroke-linejoin:round;stroke-miterlimit:3.8637;}

		.st13{clip-path:url(#SVGID_00000104693965628343647950000000927513939626270107_);fill-rule:evenodd;clip-rule:evenodd;fill:#F5F6F6;stroke:#A4CFE9;stroke-width:0.1744;stroke-linejoin:round;stroke-miterlimit:3.8637;}

		.st14{clip-path:url(#SVGID_00000104693965628343647950000000927513939626270107_);fill-rule:evenodd;clip-rule:evenodd;fill:#A4CFE9;stroke:#A4CFE9;stroke-width:0.1744;stroke-linejoin:round;stroke-miterlimit:3.8637;}

		.st15{clip-path:url(#SVGID_00000104693965628343647950000000927513939626270107_);fill-rule:evenodd;clip-rule:evenodd;fill:#A4CFE9;}

		.st16{clip-path:url(#SVGID_00000104693965628343647950000000927513939626270107_);fill:#A4CFE9;stroke:#A4CFE9;stroke-width:0.1744;stroke-linejoin:round;stroke-miterlimit:3.8637;}

		.st17{clip-path:url(#SVGID_00000104693965628343647950000000927513939626270107_);fill:none;stroke:#000000;stroke-width:0.25;stroke-miterlimit:10;}
	.st18{clip-path:url(#SVGID_00000064352000620462101340000016403382395060811443_);}
	.st19{fill:none;stroke:#A4CFE8;stroke-width:0.6246;stroke-miterlimit:10;}
	.st20{fill:#A4CFE9;}
	.st21{fill:#A4CFE8;}
	.st22{fill:none;stroke:#A4CFE8;stroke-width:0.3123;stroke-miterlimit:10;}

		.st23{clip-path:url(#SVGID_00000054951623234963400530000003657526468258671799_);fill:none;stroke:#010101;stroke-width:0.2499;stroke-miterlimit:10;}
	.st24{fill:none;stroke:#000000;stroke-width:0.25;stroke-miterlimit:10;}

		.st25{clip-path:url(#SVGID_00000064352000620462101340000016403382395060811443_);fill:none;stroke:#000000;stroke-width:0.25;stroke-miterlimit:10;}
	.st26{fill:#FFFFFF;stroke:#5696D1;stroke-width:0.4522;stroke-miterlimit:10;}
	.st27{fill:#3C8FCE;}
	.st28{fill:#3C8FCE;stroke:#3C8FCE;stroke-width:0.8696;stroke-miterlimit:10;}
	.st29{fill:#FFFFFF;}
</style>
<g id="Icone-Off">
	<g id="Napierville_OFF" class="st1">
		<circle class="st26" cx="48.93" cy="133.42" r="4.61"/>
		<path class="st27" d="M50.71,133.48c-0.01-0.09-0.07-0.16-0.15-0.2l-1.04-0.49l0.75-1.56l0,0c0.05-0.07,0.06-0.16,0.02-0.24
			c-0.03-0.08-0.11-0.14-0.19-0.15c-0.09-0.02-0.17,0.01-0.23,0.07l-2.62,2.23c-0.07,0.06-0.1,0.14-0.09,0.23
			c0.01,0.09,0.07,0.16,0.15,0.2l1.04,0.49l-0.75,1.56h0c-0.04,0.07-0.05,0.16-0.02,0.24c0.03,0.08,0.1,0.13,0.19,0.15
			c0.08,0.02,0.17-0.01,0.23-0.07l2.62-2.23C50.69,133.66,50.72,133.57,50.71,133.48L50.71,133.48z"/>
	</g>
	<g id="Adolphe_OFF" class="st1">
		<circle class="st26" cx="22.13" cy="101.7" r="4.61"/>
		<path class="st27" d="M23.91,101.75c-0.01-0.09-0.07-0.16-0.15-0.2l-1.04-0.49l0.75-1.56l0,0c0.05-0.07,0.06-0.16,0.02-0.24
			c-0.03-0.08-0.11-0.14-0.19-0.15c-0.09-0.02-0.17,0.01-0.23,0.07l-2.62,2.23c-0.07,0.06-0.1,0.14-0.09,0.23
			c0.01,0.09,0.07,0.16,0.15,0.2l1.04,0.49l-0.75,1.56h0c-0.04,0.07-0.05,0.16-0.02,0.24c0.03,0.08,0.1,0.13,0.19,0.15
			c0.08,0.02,0.17-0.01,0.23-0.07l2.62-2.23C23.89,101.93,23.92,101.84,23.91,101.75L23.91,101.75z"/>
	</g>
	<g id="Neige_OFF" class="st1">
		<circle class="st26" cx="126.22" cy="34.07" r="4.61"/>
		<path class="st27" d="M127.99,34.13c-0.01-0.09-0.07-0.16-0.15-0.2l-1.04-0.49l0.75-1.56l0,0c0.05-0.07,0.06-0.16,0.02-0.24
			c-0.03-0.08-0.11-0.14-0.19-0.15c-0.09-0.02-0.17,0.01-0.23,0.07l-2.62,2.23c-0.07,0.06-0.1,0.14-0.09,0.23s0.07,0.16,0.15,0.2
			l1.04,0.49l-0.75,1.56h0c-0.04,0.07-0.05,0.16-0.02,0.24c0.03,0.08,0.1,0.13,0.19,0.15c0.08,0.02,0.17-0.01,0.23-0.07l2.62-2.23
			C127.97,34.3,128.01,34.21,127.99,34.13L127.99,34.13z"/>
	</g>
</g>
<g id="Icone-On">
	<g id="Adolphe_ON">
		<circle class="st28" cx="22.13" cy="101.7" r="4.43"/>
		<path class="st29" d="M23.91,101.75c-0.01-0.09-0.07-0.16-0.15-0.2l-1.04-0.49l0.75-1.56l0,0c0.05-0.07,0.06-0.16,0.02-0.24
			c-0.03-0.08-0.11-0.14-0.19-0.15c-0.09-0.02-0.17,0.01-0.23,0.07l-2.62,2.23c-0.07,0.06-0.1,0.14-0.09,0.23
			c0.01,0.09,0.07,0.16,0.15,0.2l1.04,0.49l-0.75,1.56h0c-0.04,0.07-0.05,0.16-0.02,0.24c0.03,0.08,0.1,0.13,0.19,0.15
			c0.08,0.02,0.17-0.01,0.23-0.07l2.62-2.23C23.89,101.93,23.92,101.84,23.91,101.75L23.91,101.75z"/>
	</g>
	<g id="Napierville_ON">
		<circle class="st28" cx="48.93" cy="133.42" r="4.43"/>
		<path class="st29" d="M50.71,133.48c-0.01-0.09-0.07-0.16-0.15-0.2l-1.04-0.49l0.75-1.56l0,0c0.05-0.07,0.06-0.16,0.02-0.24
			c-0.03-0.08-0.11-0.14-0.19-0.15c-0.09-0.02-0.17,0.01-0.23,0.07l-2.62,2.23c-0.07,0.06-0.1,0.14-0.09,0.23
			c0.01,0.09,0.07,0.16,0.15,0.2l1.04,0.49l-0.75,1.56h0c-0.04,0.07-0.05,0.16-0.02,0.24c0.03,0.08,0.1,0.13,0.19,0.15
			c0.08,0.02,0.17-0.01,0.23-0.07l2.62-2.23C50.69,133.66,50.72,133.57,50.71,133.48L50.71,133.48z"/>
	</g>
	<g id="Neige_ON">
		<circle class="st28" cx="126.22" cy="34.07" r="4.43"/>
		<path class="st29" d="M127.99,34.13c-0.01-0.09-0.07-0.16-0.15-0.2l-1.04-0.49l0.75-1.56l0,0c0.05-0.07,0.06-0.16,0.02-0.24
			c-0.03-0.08-0.11-0.14-0.19-0.15c-0.09-0.02-0.17,0.01-0.23,0.07l-2.62,2.23c-0.07,0.06-0.1,0.14-0.09,0.23
			c0.01,0.09,0.07,0.16,0.15,0.2l1.04,0.49l-0.75,1.56h0c-0.04,0.07-0.05,0.16-0.02,0.24c0.03,0.08,0.1,0.13,0.19,0.15
			c0.08,0.02,0.17-0.01,0.23-0.07l2.62-2.23C127.97,34.3,128.01,34.21,127.99,34.13L127.99,34.13z"/>
	</g>
</g>
</svg>
