<?xml version="1.0" encoding="utf-8"?>
<!-- Generator: Adobe Illustrator 27.4.0, SVG Export Plug-In . SVG Version: 6.00 Build 0)  -->
<svg version="1.1" xmlns="http://www.w3.org/2000/svg" xmlns:xlink="http://www.w3.org/1999/xlink" x="0px" y="0px"
	 viewBox="0 0 165 164.93" style="enable-background:new 0 0 165 164.93;" xml:space="preserve">
<style type="text/css">
	.st0{display:none;}
	.st1{display:inline;}
	.st2{clip-path:url(#SVGID_00000083069245825968820120000014673270305464832931_);fill:#A4CFE9;}
	.st3{clip-path:url(#SVGID_00000083069245825968820120000014673270305464832931_);}
	.st4{fill:#E4EBF4;}
	.st5{fill-rule:evenodd;clip-rule:evenodd;fill:#E4EBF4;}
	.st6{fill:none;stroke:#E4EBF4;stroke-width:0.6254;stroke-linejoin:round;stroke-miterlimit:3.8637;}
	.st7{clip-path:url(#SVGID_00000083069245825968820120000014673270305464832931_);fill:#E4EBF4;}

		.st8{clip-path:url(#SVGID_00000083069245825968820120000014673270305464832931_);fill-rule:evenodd;clip-rule:evenodd;fill:#E4EBF4;}
	.st9{opacity:0.5;clip-path:url(#SVGID_00000083069245825968820120000014673270305464832931_);}

		.st10{clip-path:url(#SVGID_00000083069245825968820120000014673270305464832931_);fill:none;stroke:#FFC50B;stroke-width:0.6254;stroke-miterlimit:10;}

		.st11{clip-path:url(#SVGID_00000083069245825968820120000014673270305464832931_);fill-rule:evenodd;clip-rule:evenodd;fill:#E0E1E0;stroke:#A4CFE9;stroke-width:0.1744;stroke-linejoin:round;stroke-miterlimit:3.8637;}

		.st12{clip-path:url(#SVGID_00000083069245825968820120000014673270305464832931_);fill:none;stroke:#A4CFE9;stroke-width:0.1744;stroke-linejoin:round;stroke-miterlimit:3.8637;}

		.st13{clip-path:url(#SVGID_00000083069245825968820120000014673270305464832931_);fill-rule:evenodd;clip-rule:evenodd;fill:#F5F6F6;stroke:#A4CFE9;stroke-width:0.1744;stroke-linejoin:round;stroke-miterlimit:3.8637;}

		.st14{clip-path:url(#SVGID_00000083069245825968820120000014673270305464832931_);fill-rule:evenodd;clip-rule:evenodd;fill:#A4CFE9;stroke:#A4CFE9;stroke-width:0.1744;stroke-linejoin:round;stroke-miterlimit:3.8637;}

		.st15{clip-path:url(#SVGID_00000083069245825968820120000014673270305464832931_);fill-rule:evenodd;clip-rule:evenodd;fill:#A4CFE9;}

		.st16{clip-path:url(#SVGID_00000083069245825968820120000014673270305464832931_);fill:#A4CFE9;stroke:#A4CFE9;stroke-width:0.1744;stroke-linejoin:round;stroke-miterlimit:3.8637;}

		.st17{clip-path:url(#SVGID_00000083069245825968820120000014673270305464832931_);fill:none;stroke:#000000;stroke-width:0.25;stroke-miterlimit:10;}
	.st18{clip-path:url(#SVGID_00000151543504407950017790000006661266677394845326_);}
	.st19{fill:none;stroke:#A4CFE8;stroke-width:0.6246;stroke-miterlimit:10;}
	.st20{fill:#A4CFE9;}
	.st21{fill:#A4CFE8;}
	.st22{fill:none;stroke:#A4CFE8;stroke-width:0.3123;stroke-miterlimit:10;}

		.st23{clip-path:url(#SVGID_00000181059007184414682710000015074480584419842998_);fill:none;stroke:#010101;stroke-width:0.2499;stroke-miterlimit:10;}
	.st24{fill:none;stroke:#000000;stroke-width:0.25;stroke-miterlimit:10;}

		.st25{clip-path:url(#SVGID_00000151543504407950017790000006661266677394845326_);fill:none;stroke:#000000;stroke-width:0.25;stroke-miterlimit:10;}
	.st26{fill:#FFFFFF;stroke:#5696D1;stroke-width:0.4522;stroke-miterlimit:10;}
	.st27{fill:#3C8FCE;}
	.st28{fill:#3C8FCE;stroke:#3C8FCE;stroke-width:0.8696;stroke-miterlimit:10;}
	.st29{fill:#FFFFFF;}
</style>
<g id="Icone-Off">
	<g id="Churchill_OFF" class="st1">
		<circle class="st26" cx="88.21" cy="59.68" r="4.61"/>
		<path class="st27" d="M89.99,59.74c-0.01-0.09-0.07-0.16-0.15-0.2l-1.04-0.49l0.75-1.56l0,0c0.05-0.07,0.06-0.16,0.02-0.24
			c-0.03-0.08-0.11-0.14-0.19-0.15c-0.09-0.02-0.17,0.01-0.23,0.07l-2.62,2.23c-0.07,0.06-0.1,0.14-0.09,0.23
			c0.01,0.09,0.07,0.16,0.15,0.2l1.04,0.49l-0.75,1.56h0c-0.04,0.07-0.05,0.16-0.02,0.24c0.03,0.08,0.1,0.13,0.19,0.15
			c0.08,0.02,0.17-0.01,0.23-0.07l2.62-2.23C89.97,59.91,90,59.82,89.99,59.74L89.99,59.74z"/>
	</g>
	<g id="Magpie_OFF" class="st1">
		<circle class="st26" cx="40.73" cy="93.21" r="4.61"/>
		<path class="st27" d="M42.51,93.27c-0.01-0.09-0.07-0.16-0.15-0.2l-1.04-0.49l0.75-1.56l0,0c0.05-0.07,0.06-0.16,0.02-0.24
			c-0.03-0.08-0.11-0.14-0.19-0.15c-0.09-0.02-0.17,0.01-0.23,0.07l-2.62,2.23c-0.07,0.06-0.1,0.14-0.09,0.23
			c0.01,0.09,0.07,0.16,0.15,0.2l1.04,0.49l-0.75,1.56h0c-0.04,0.07-0.05,0.16-0.02,0.24c0.03,0.08,0.1,0.13,0.19,0.15
			c0.08,0.02,0.17-0.01,0.23-0.07l2.62-2.23C42.48,93.45,42.52,93.36,42.51,93.27L42.51,93.27z"/>
	</g>
	<g id="Mecatina_OFF" class="st1">
		<circle class="st26" cx="110.56" cy="110.5" r="4.61"/>
		<path class="st27" d="M112.34,110.56c-0.01-0.09-0.07-0.16-0.15-0.2l-1.04-0.49l0.75-1.56l0,0c0.05-0.07,0.06-0.16,0.02-0.24
			c-0.03-0.08-0.11-0.14-0.19-0.15c-0.09-0.02-0.17,0.01-0.23,0.07l-2.62,2.23c-0.07,0.06-0.1,0.14-0.09,0.23
			c0.01,0.09,0.07,0.16,0.15,0.2l1.04,0.49l-0.75,1.56h0c-0.04,0.07-0.05,0.16-0.02,0.24c0.03,0.08,0.1,0.13,0.19,0.15
			c0.08,0.02,0.17-0.01,0.23-0.07l2.62-2.23C112.31,110.73,112.35,110.65,112.34,110.56L112.34,110.56z"/>
	</g>
</g>
<g id="Icone-On">
	<g id="Churchill_ON">
		<circle class="st28" cx="88.21" cy="59.68" r="4.43"/>
		<path class="st29" d="M89.99,59.74c-0.01-0.09-0.07-0.16-0.15-0.2l-1.04-0.49l0.75-1.56l0,0c0.05-0.07,0.06-0.16,0.02-0.24
			c-0.03-0.08-0.11-0.14-0.19-0.15c-0.09-0.02-0.17,0.01-0.23,0.07l-2.62,2.23c-0.07,0.06-0.1,0.14-0.09,0.23
			c0.01,0.09,0.07,0.16,0.15,0.2l1.04,0.49l-0.75,1.56h0c-0.04,0.07-0.05,0.16-0.02,0.24c0.03,0.08,0.1,0.13,0.19,0.15
			c0.08,0.02,0.17-0.01,0.23-0.07l2.62-2.23C89.97,59.91,90,59.83,89.99,59.74L89.99,59.74z"/>
	</g>
	<g id="Mecatina_ON">
		<circle class="st28" cx="110.56" cy="110.5" r="4.43"/>
		<path class="st29" d="M112.34,110.56c-0.01-0.09-0.07-0.16-0.15-0.2l-1.04-0.49l0.75-1.56l0,0c0.05-0.07,0.06-0.16,0.02-0.24
			c-0.03-0.08-0.11-0.14-0.19-0.15c-0.09-0.02-0.17,0.01-0.23,0.07l-2.62,2.23c-0.07,0.06-0.1,0.14-0.09,0.23
			c0.01,0.09,0.07,0.16,0.15,0.2l1.04,0.49l-0.75,1.56h0c-0.04,0.07-0.05,0.16-0.02,0.24c0.03,0.08,0.1,0.13,0.19,0.15
			c0.08,0.02,0.17-0.01,0.23-0.07l2.62-2.23C112.31,110.73,112.35,110.65,112.34,110.56L112.34,110.56z"/>
	</g>
	<g id="Magpie_ON">
		<circle class="st28" cx="40.73" cy="93.21" r="4.43"/>
		<path class="st29" d="M42.51,93.27c-0.01-0.09-0.07-0.16-0.15-0.2l-1.04-0.49l0.75-1.56l0,0c0.05-0.07,0.06-0.16,0.02-0.24
			c-0.03-0.08-0.11-0.14-0.19-0.15c-0.09-0.02-0.17,0.01-0.23,0.07l-2.62,2.23c-0.07,0.06-0.1,0.14-0.09,0.23s0.07,0.16,0.15,0.2
			l1.04,0.49l-0.75,1.56h0c-0.04,0.07-0.05,0.16-0.02,0.24c0.03,0.08,0.1,0.13,0.19,0.15c0.08,0.02,0.17-0.01,0.23-0.07l2.62-2.23
			C42.48,93.45,42.52,93.36,42.51,93.27L42.51,93.27z"/>
	</g>
</g>
</svg>
