<?xml version="1.0" encoding="utf-8"?>
<!-- Generator: Adobe Illustrator 27.4.0, SVG Export Plug-In . SVG Version: 6.00 Build 0)  -->
<svg version="1.1" id="Layer_1" xmlns="http://www.w3.org/2000/svg" xmlns:xlink="http://www.w3.org/1999/xlink" x="0px" y="0px"
	 viewBox="0 0 1920 1080" style="enable-background:new 0 0 1920 1080;" xml:space="preserve">
<style type="text/css">
	.st0{fill:#13293C;}
	.st1{fill:url(#SVGID_1_);}
	.st2{display:none;}
	.st3{clip-path:url(#SVGID_00000085242671403858494550000008514902148156562563_);}
	.st4{fill:none;stroke:#FFFFFF;stroke-width:1.5;stroke-miterlimit:10;}
	.st5{fill:none;stroke:#11293D;stroke-width:0.5571;stroke-linecap:round;stroke-miterlimit:10;}
	.st6{fill:#BACEE9;}
	.st7{fill:none;stroke:#83AAD5;stroke-width:0.5571;stroke-miterlimit:10;}
	.st8{fill:#11293D;}
	.st9{fill:#83AAD5;}
	.st10{fill:#FF4441;}
	.st11{fill:none;stroke:#000000;stroke-width:0.8356;stroke-miterlimit:10;}
	.st12{fill:none;stroke:#FFFFFF;stroke-width:1.1142;stroke-linecap:round;stroke-miterlimit:10;}
	.st13{fill:#244662;}
	.st14{fill:#3A87C9;}
	.st15{fill:none;stroke:#FFFFFF;stroke-width:0.5571;stroke-linecap:round;stroke-miterlimit:10;}
	.st16{fill:none;stroke:#000000;stroke-width:1.6712;stroke-miterlimit:10;}
	.st17{fill:none;stroke:#000000;stroke-width:1.1142;stroke-miterlimit:10;}
	.st18{fill:none;stroke:#000000;stroke-width:1.1142;stroke-miterlimit:10;stroke-dasharray:1.1072,0.8304;}
	.st19{fill:#FFFFFF;}
	.st20{fill:#FFFFFF;stroke:#11293D;stroke-width:0.5571;stroke-miterlimit:10;}
	
		.st21{clip-path:url(#SVGID_00000095301296125571641000000005119583122805092496_);fill:none;stroke:#11293D;stroke-width:1.6712;stroke-miterlimit:10;}
	.st22{clip-path:url(#SVGID_00000095301296125571641000000005119583122805092496_);}
	
		.st23{clip-path:url(#SVGID_00000092457783096645733100000010555183340465291909_);fill:none;stroke:#244662;stroke-width:1.1142;stroke-miterlimit:10;}
	
		.st24{clip-path:url(#SVGID_00000092457783096645733100000010555183340465291909_);fill:none;stroke:#244662;stroke-width:0.5571;stroke-miterlimit:10;}
	
		.st25{clip-path:url(#SVGID_00000040552061772147846870000015865667913562566048_);fill:none;stroke:#11293D;stroke-width:1.1142;stroke-miterlimit:10;}
</style>
<g id="Layer_3">
	<rect class="st0" width="1920" height="1080"/>
	
		<radialGradient id="SVGID_1_" cx="354.0308" cy="667.3712" r="541.6937" gradientTransform="matrix(1 0 0 -1 0 1080)" gradientUnits="userSpaceOnUse">
		<stop  offset="0.1703" style="stop-color:#87ABD4;stop-opacity:0.65"/>
		<stop  offset="0.2961" style="stop-color:#7192B7;stop-opacity:0.7073"/>
		<stop  offset="0.6023" style="stop-color:#3E5A75;stop-opacity:0.8466"/>
		<stop  offset="0.8249" style="stop-color:#1F364C;stop-opacity:0.948"/>
		<stop  offset="0.9391" style="stop-color:#13293C"/>
	</radialGradient>
	<rect class="st1" width="1920" height="1080"/>
</g>
<g id="Layer_7">
</g>
<g id="Layer_8">
</g>
<g id="Layer_6" class="st2">
</g>
<g id="Layer_5">
</g>
<g id="Layer_4">
</g>
<g id="Layer_1_00000018930156057188437970000009846045746194117048_" class="st2">
</g>
<g id="Layer_2_00000140713926546685448320000010929839785765109669_">
</g>
<g id="Layer_10">
</g>
<g>
	<defs>
		<rect id="SVGID_00000067217999930958826350000010566981737012736130_" width="1920" height="1080"/>
	</defs>
	<clipPath id="SVGID_00000098905746724776525250000012974037151585154201_">
		<use xlink:href="#SVGID_00000067217999930958826350000010566981737012736130_"  style="overflow:visible;"/>
	</clipPath>
	<g style="clip-path:url(#SVGID_00000098905746724776525250000012974037151585154201_);">
		<path class="st4" d="M138.76,401.5c-0.06,0.31-0.12,0.62-0.17,0.94c-1.71,9.37-2.8,18.96-3.21,28.73c0,0.05,0,0.11-0.01,0.16
			c-0.04,0.94-0.07,1.89-0.1,2.84c-0.01,0.19-0.01,0.39-0.02,0.58c-0.03,1.05-0.05,2.09-0.06,3.14
			c-1.27,115.29,91.17,209.77,206.45,211.03s209.77-91.17,211.03-206.45c0.01-1.05,0.01-2.1,0.01-3.14c0-0.19,0-0.39,0-0.58
			c-0.01-0.95-0.02-1.89-0.04-2.84c0-0.05,0-0.11,0-0.16c-0.2-9.77-1.08-19.39-2.58-28.79c-0.05-0.31-0.1-0.63-0.15-0.94
			c-0.04-0.24-0.08-0.49-0.12-0.73c-9.03-55.11-37.26-101.96-57.55-135.39c-24.72-40.72-29.14-67.74-30.2-94.27
			c-1.06-26.53-26.26-49.25-26.26-49.25h-87.91h-94.11c0,0-20.45,20.23-22.09,46.72c-1.64,26.5-6.65,53.41-32.26,93.58
			c-21.02,32.98-50.27,79.19-60.51,134.1C138.85,401.01,138.81,401.26,138.76,401.5z"/>
		<line class="st5" x1="367.41" y1="352.82" x2="358.4" y2="352.94"/>
		<line class="st5" x1="322.39" y1="352.33" x2="331.39" y2="352.64"/>
		<path class="st6" d="M314.16,234.93c2.89,3.02,11.34,6.22,17.8,6.22c-0.53,1.36-0.82,2.84-0.82,4.38
			c0,6.67,5.41,12.08,12.08,12.08c6.67,0,12.08-5.41,12.08-12.08c0-1.55-0.29-3.03-0.82-4.38c6.46,0,14.91-3.2,17.8-6.22
			c0,0,0.73,3.32,0.86,12.98c0.13,9.1-1.98,15.72-1.08,23.11c0.13,1.04,0.12,1.04-0.01,0c-9.91,1.4-10.75,5.75-28.84,5.75
			s-18.93-4.36-28.84-5.75c0.9-7.39-1.21-14.01-1.08-23.11C313.43,238.25,314.16,234.93,314.16,234.93z"/>
		<line class="st7" x1="331.48" y1="355.59" x2="332.26" y2="284.42"/>
		<line class="st7" x1="358.24" y1="355.88" x2="359.03" y2="284.72"/>
		<path class="st8" d="M343.22-38.41c-13.46,0-39.98,0-53.11,2.11l17.96-20.43c0.85-3.7,2.98-7.39,8.38-7.39c4.77,0,48.83,0,53.6,0
			c5.39,0,7.52,3.69,8.38,7.39l17.96,20.43C383.25-38.41,356.68-38.41,343.22-38.41z"/>
		<path class="st9" d="M249.6,127.37h93.62h93.62c0,0,0.16-6.38-3.36-6.38l3-36.69c0-3.01-3.52-5.57-8.28-7.66v0l0,0
			c0-3.24,1.32-5.12,3.79-6.92c3.25-2.36,3.94-4.44,3.94-8.61c0-3.6-3.26-6.68-7.73-9.22v-0.23l0,0c0-3.24,1.32-5.12,3.79-6.92
			c3.25-2.36,3.94-4.44,3.94-8.61c0-3.6-3.26-6.68-7.73-9.22V26.7h0c0-3.24,1.32-5.12,3.79-6.91c3.25-2.36,3.94-4.44,3.94-8.61
			c0-3.6-3.26-6.68-7.73-9.21c0,0-2.56-2.01-2.48-5.14c0.1-4,2.48-5.22-0.71-9.71c-2.54-3.58-18.86-19.65-21.65-21.36
			c-2.41-1.47-5.51-1.84-6.97-2.06c-13.12-2.11-39.7-2.11-53.16-2.11s-40.01,0-53.13,2.11c-1.46,0.23-4.59,0.59-7,2.06
			c-2.79,1.7-26.36,25.09-28.91,28.66c-3.19,4.49,5.12,8.17,5.22,12.16c0.02,0.65,0.03,1.24,0.03,1.77v2.49
			c-4.47,2.54-7.73,5.62-7.73,9.22c0,4.16,0.68,6.24,3.94,8.61c2.47,1.79,3.79,3.68,3.79,6.92l0,0v0.23
			c-4.47,2.48-7.73,5.5-7.73,9.02c0,4.08,0.68,6.11,3.94,8.43c2.47,1.75,3.79,3.6,3.79,6.77h0v0.88c-4.47,2.52-7.73,5.59-7.73,9.17
			c0,4.14,0.68,6.21,3.94,8.57c2.47,1.78,3.79,3.66,3.79,6.88l0,0v0c-4.76,2.09-8.28,4.65-8.28,7.66l1.81,27.82
			C249.44,120.99,249.6,127.37,249.6,127.37z"/>
		<path class="st10" d="M259.43,110.56"/>
		<path class="st11" d="M389.75,455.7c0,0-15.08-37.79-16.27-42.79c-1.19-4.99-12.58-50.77-12.58-50.77"/>
		<path class="st11" d="M381.57,434.9c-1.1-2.85-6.49-4.91-5.15,0.87c2.17,9.42,11.63,15.71,8.53,7.77"/>
		<path class="st8" d="M344.86,355.86c-7.64-0.08-8.58-1.91-11.9-1.95l-10.59-0.33c-1.93-0.02-4.22,1-4.25,4.02
			c-0.03,2.96,2.24,4.09,4.16,4.11l10.6,0.12c3.32,0.04,4.26,1.86,11.9,1.95c7.64,0.08,8.62-1.72,11.94-1.69l10.6,0.12
			c1.93,0.02,4.22-1.06,4.25-4.02c0.03-3.02-2.24-4.09-4.16-4.11l-10.6,0.1C353.48,354.14,352.5,355.95,344.86,355.86z"/>
		<path class="st11" d="M304.04,459.36c-1.12-3.91-3.12-23.67,0.98-27.3c2.05-1.81,10.51-0.42,5.66,9.77
			c-3.98,8.37-11.09-3.12-5.66-9.77c2.53-3.42,4.32-8.89,6.49-13.86c2.6-5.74,15.26-56.44,15.26-56.44"/>
		<path class="st9" d="M344.86,355.86c-7.64-0.08-8.58-1.89-11.9-1.93l0.75-68.78c3.38,0.33,4.45,0.46,5.91,1.15
			c0.75,2.03,3.33,3.63,5.95,3.66s5.24-1.51,6.03-3.52c1.47-0.66,2.55-0.77,5.94-1.02l-0.75,68.78
			C353.48,354.16,352.5,355.95,344.86,355.86z"/>
		<path class="st9" d="M305.46,127.37v83.03c-0.28,6.49,1.8,11.92,6.29,14.3c1.57,0.83,3.45,1.29,5.62,1.29
			c9.56,0,13.93-2.37,25.85-2.37s16.28,2.37,25.85,2.37c2.17,0,4.04-0.46,5.62-1.3c4.49-2.38,6.57-7.81,6.29-14.3l0-83.03H305.46z"
			/>
		<line class="st12" x1="307.86" y1="208.97" x2="307.86" y2="124.88"/>
		<path class="st13" d="M313.29,247.91c-0.13,9.1,1.98,15.72,1.08,23.11c-0.26,2.16-0.78,4.38-1.69,6.75
			c-0.73,1.21-4.07,1.22-6.1-0.83c-2.03-2.05-3.15-6.13-3.15-12.22c0-9.47,3.52-23.17,3.52-29.12c0-6.42-1.5-10.42-1.5-25.2
			c-0.28,6.49,1.8,11.92,6.29,14.3c0,0-0.62,6.19,2.4,10.24C314.16,234.93,313.43,238.25,313.29,247.91z"/>
		<path class="st14" d="M311.76,224.7c1.57,0.83,3.45,1.3,5.62,1.3c9.56,0,13.93-2.37,25.85-2.37s16.28,2.37,25.85,2.37
			c2.17,0,4.04-0.46,5.62-1.3c0,0,0.62,6.19-2.4,10.24c-2.89,3.02-11.34,6.22-17.8,6.22c0.53,1.36,0.82,2.84,0.82,4.38
			c0,6.67-5.41,12.08-12.08,12.08s-12.08-5.41-12.08-12.08c0-1.55,0.29-3.03,0.82-4.38c-6.46,0-14.91-3.2-17.8-6.22
			C311.14,230.88,311.76,224.7,311.76,224.7z"/>
		<path class="st6" d="M351.62,286.43c-0.79,2.01-3.4,3.55-6.03,3.52s-5.21-1.63-5.95-3.66l-0.7,63.37c0,0,1.94-0.64,6-0.6
			c4.06,0.04,5.99,0.73,5.99,0.73L351.62,286.43z"/>
		<line class="st15" x1="341.28" y1="342.49" x2="341.89" y2="286.32"/>
		<line class="st15" x1="348.74" y1="342.57" x2="349.36" y2="286.41"/>
		<path class="st8" d="M374.33,278.4c-0.12,10.78,0.36,14.4,6.1,29.17l53.71,130.12c0.62,1.49,2.36,2.15,3.81,1.44l0,0
			c1.36-0.67,1.94-2.3,1.31-3.67l-6.27-14.16c-0.51-1.12-1.55-1.9-2.77-2.1l-0.66,0.16l-5.63-13.61l0,0
			c0.32-0.75,0.32-1.59,0.01-2.34l-39.72-95.94c-5.84-14.38-6.39-18.13-6.29-28.51c0,0-1.17-0.06-1.67-0.83L374.33,278.4z"/>
		<path class="st8" d="M317.1,277.77c-0.12,10.78-0.68,14.39-6.74,29.03l-56.55,128.91c-0.65,1.48-2.41,2.1-3.84,1.36h0
			c-1.35-0.7-1.89-2.34-1.23-3.7l6.58-14.02c0.54-1.11,1.59-1.87,2.81-2.03l0.66,0.18l5.93-13.48l0,0c-0.3-0.75-0.29-1.6,0.04-2.34
			l41.82-95.05c6.15-14.25,6.79-17.98,6.92-28.37c0,0,1.17-0.03,1.69-0.79L317.1,277.77z"/>
		<path class="st16" d="M434.13,437.68c-2.94,1.37-8.33,4.25-12.83,4.83c-8.74,1.11-22.74,2.07-36.11,1.66"/>
		<path class="st16" d="M253.82,435.71c2.49,1.98,14.28,3.51,18.8,3.9c8.9,0.77,17.45-1.93,30.55-3.36"/>
		<g>
			<g>
				<path class="st17" d="M385.2,444.18c-0.19,0-0.37,0-0.56,0"/>
				<path class="st18" d="M383.81,444.17c-11.92,0.05-20.12,1.9-29.08-0.29c-20.21-4.94-41.94-11.56-50.69-8.04"/>
				<path class="st17" d="M303.67,436c-0.17,0.08-0.34,0.16-0.5,0.25"/>
			</g>
		</g>
		<path class="st13" d="M373.14,247.91c0.13,9.1-1.98,15.72-1.08,23.11c0.26,2.16,0.78,4.38,1.69,6.75c0.73,1.21,4.07,1.22,6.1-0.83
			c2.03-2.05,3.15-6.13,3.15-12.22c0-9.47-3.52-23.17-3.52-29.12c0-6.42,1.5-10.42,1.5-25.2c0.28,6.49-1.8,11.92-6.29,14.3
			c0,0,0.62,6.19-2.4,10.24C372.28,234.93,373.01,238.25,373.14,247.91z"/>
		<path class="st9" d="M314.38,271.03c-0.26,2.16-0.78,4.38-1.69,6.75c10.62,1.46,10.82,4.65,18.61,7.5
			c3.38,0.29,4.46,0.41,5.92,1.08c0.77,2.02,3.37,3.59,5.99,3.59s5.22-1.57,5.99-3.59c1.47-0.68,2.54-0.8,5.92-1.08
			c7.79-2.85,7.99-6.04,18.61-7.5c-0.91-2.37-1.43-4.59-1.69-6.75c-9.91,1.4-10.75,5.75-28.84,5.75S324.28,272.42,314.38,271.03z"/>
		<g>
			<path class="st19" d="M372.05,269.45c-4.95,0.67-9.31,3.15-14.1,4.44c-4.81,1.28-9.8,1.53-14.74,1.59
				c-7.42,0.08-14.92-0.99-21.73-4.05c-2.29-0.9-4.66-1.6-7.1-1.98c2.45,0.29,4.86,0.91,7.2,1.72c6.87,2.87,14.22,3.87,21.64,3.75
				c4.91-0.01,9.86-0.26,14.63-1.44C362.61,272.28,367.11,269.91,372.05,269.45L372.05,269.45z"/>
		</g>
		<path class="st6" d="M357.9,220.59v-87.65h11.17l0,79.3c0,3.98-0.65,8.35-5.58,8.35C357.9,220.59,357.9,220.59,357.9,220.59z"/>
		<path class="st6" d="M328.54,220.59v-87.65h-11.17v79.3c0,3.98,0.65,8.35,5.58,8.35C328.54,220.59,328.54,220.59,328.54,220.59z"
			/>
		
			<rect x="333.86" y="132.95" transform="matrix(-1 -1.793993e-10 1.793993e-10 -1 686.4365 353.5416)" class="st6" width="18.72" height="87.65"/>
		<circle class="st20" cx="343.22" cy="245.54" r="9.36"/>
		<circle class="st19" cx="343.22" cy="245.54" r="9.06"/>
		<circle class="st6" cx="343.22" cy="245.54" r="7.97"/>
		<g>
			<path class="st8" d="M334.64,236.96c4.18-5.17,12.97-5.17,17.15,0C346.99,232.74,339.44,232.74,334.64,236.96L334.64,236.96z"/>
		</g>
		<g>
			<path class="st8" d="M338.93,284.04c2.06-2.58,6.52-2.58,8.58,0C345.06,281.92,341.37,281.92,338.93,284.04L338.93,284.04z"/>
		</g>
		<g>
			<path class="st6" d="M347.51,286.35c-2.06,2.58-6.52,2.58-8.58,0C341.37,288.47,345.06,288.47,347.51,286.35L347.51,286.35z"/>
		</g>
		<g>
			<path class="st6" d="M150.13,438.04c0.82,105.61,86.16,192.79,191.68,195.94c-12.7,0.22-25.42-0.99-37.94-3.33
				c-37.68-7.18-72.87-26.35-99.67-53.77C168.34,540.45,148.03,489.17,150.13,438.04L150.13,438.04z"/>
		</g>
		<path class="st13" d="M343.22,127.37H249.6c0,0-0.16-6.38,3.36-6.38h90.26h90.26c3.52,0,3.36,6.38,3.36,6.38H343.22z"/>
		<g>
			<defs>
				<path id="SVGID_00000041256149676147803540000015387559205515206814_" d="M249.6,127.37h93.62h93.62c0,0,0.16-6.38-3.36-6.38
					l3-36.69c0-3.01-3.52-5.57-8.28-7.66v0l0,0c0-3.24,1.32-5.12,3.79-6.92c3.25-2.36,3.94-4.44,3.94-8.61
					c0-3.6-3.26-6.68-7.73-9.22v-0.23l0,0c0-3.24,1.32-5.12,3.79-6.92c3.25-2.36,3.94-4.44,3.94-8.61c0-3.6-3.26-6.68-7.73-9.22
					V26.7h0c0-3.24,1.32-5.12,3.79-6.91c3.25-2.36,3.94-4.44,3.94-8.61c0-3.6-3.26-6.68-7.73-9.21c0,0-2.56-2.01-2.48-5.14
					c0.1-4,2.48-5.22-0.71-9.71c-2.54-3.58-18.86-19.65-21.65-21.36c-2.41-1.47-5.51-1.84-6.97-2.06
					c-13.12-2.11-39.7-2.11-53.16-2.11s-40.01,0-53.13,2.11c-1.46,0.23-4.59,0.59-7,2.06c-2.79,1.7-26.36,25.09-28.91,28.66
					c-3.19,4.49,5.12,8.17,5.22,12.16c0.02,0.65,0.03,1.24,0.03,1.77v2.49c-4.47,2.54-7.73,5.62-7.73,9.22
					c0,4.16,0.68,6.24,3.94,8.61c2.47,1.79,3.79,3.68,3.79,6.92l0,0v0.23c-4.47,2.48-7.73,5.5-7.73,9.02c0,4.08,0.68,6.11,3.94,8.43
					c2.47,1.75,3.79,3.6,3.79,6.77h0v0.88c-4.47,2.52-7.73,5.59-7.73,9.17c0,4.14,0.68,6.21,3.94,8.57
					c2.47,1.78,3.79,3.66,3.79,6.88l0,0v0c-4.76,2.09-8.28,4.65-8.28,7.66l1.81,27.82C249.44,120.99,249.6,127.37,249.6,127.37z"/>
			</defs>
			<clipPath id="SVGID_00000115494716420578447580000013737586909897462145_">
				<use xlink:href="#SVGID_00000041256149676147803540000015387559205515206814_"  style="overflow:visible;"/>
			</clipPath>
			
				<path style="clip-path:url(#SVGID_00000115494716420578447580000013737586909897462145_);fill:none;stroke:#11293D;stroke-width:1.6712;stroke-miterlimit:10;" d="
				M407.26-32.99c-15.81-2.54-47.82-3.31-64.04-3.31s-48.2,0.77-64.01,3.31"/>
			<g style="clip-path:url(#SVGID_00000115494716420578447580000013737586909897462145_);">
				<path class="st8" d="M430.66,77.77c-8.32-3.86-17.73-5.54-26.82-6.97c-9.26-1.36-18.61-2.2-27.99-2.67
					c9.39,0.01,18.78,0.38,28.16,1.29c9.45,1.02,18.87,2.2,27.82,5.82C431.83,75.24,430.66,77.77,430.66,77.77L430.66,77.77z"/>
			</g>
			<g style="clip-path:url(#SVGID_00000115494716420578447580000013737586909897462145_);">
				<path class="st8" d="M430.66,52.98c-8.32-3.86-17.73-5.54-26.82-6.97c-9.26-1.36-18.61-2.2-27.99-2.67
					c9.39,0.01,18.78,0.38,28.16,1.29c9.45,1.02,18.87,2.2,27.82,5.82C431.83,50.45,430.66,52.98,430.66,52.98L430.66,52.98z"/>
			</g>
			<g style="clip-path:url(#SVGID_00000115494716420578447580000013737586909897462145_);">
				<path class="st8" d="M430.66,28c-8.32-3.86-17.73-5.54-26.82-6.97c-9.26-1.36-18.61-2.2-27.99-2.67
					c9.39,0.01,18.78,0.38,28.16,1.29c9.45,1.02,18.87,2.2,27.82,5.82C431.83,25.48,430.66,28,430.66,28L430.66,28z"/>
			</g>
			<g style="clip-path:url(#SVGID_00000115494716420578447580000013737586909897462145_);">
				<path class="st8" d="M430.66,3.01c-8.32-3.86-17.73-5.54-26.82-6.97c-9.26-1.36-18.61-2.2-27.99-2.67
					c9.39,0.01,18.78,0.38,28.16,1.29c9.45,1.02,18.87,2.2,27.82,5.82C431.83,0.48,430.66,3.01,430.66,3.01L430.66,3.01z"/>
			</g>
			<g style="clip-path:url(#SVGID_00000115494716420578447580000013737586909897462145_);">
				<path class="st8" d="M257.91,83.15c10.43-3.89,21.38-5.46,32.33-6.74c10.9-1.2,21.84-1.81,32.77-2.15
					c10.93-0.31,21.88-0.4,32.8-0.18c10.91,0.25,21.9,0.2,32.72,1.84c-15.67-1.72-33.27-0.51-49.1-0.48
					c-21.74,0.58-43.64,1.58-65,5.84c-5.29,1.12-10.55,2.47-15.5,4.46C258.94,85.74,257.91,83.15,257.91,83.15L257.91,83.15z"/>
			</g>
			<g style="clip-path:url(#SVGID_00000115494716420578447580000013737586909897462145_);">
				<path class="st8" d="M257.91,58.5c10.43-3.89,21.38-5.46,32.33-6.74c10.9-1.2,21.84-1.81,32.77-2.15
					c10.93-0.31,21.88-0.4,32.8-0.18c10.91,0.25,21.91,0.2,32.72,1.84c-15.67-1.72-33.27-0.51-49.1-0.48
					c-21.74,0.58-43.64,1.58-65,5.84c-5.29,1.12-10.55,2.47-15.5,4.46C258.94,61.09,257.91,58.5,257.91,58.5L257.91,58.5z"/>
			</g>
			<g style="clip-path:url(#SVGID_00000115494716420578447580000013737586909897462145_);">
				<path class="st8" d="M257.91,33.4c10.43-3.89,21.38-5.46,32.33-6.74c10.9-1.2,21.84-1.81,32.77-2.15
					c10.93-0.31,21.88-0.4,32.8-0.18c10.91,0.25,21.91,0.2,32.72,1.84c-15.67-1.72-33.27-0.51-49.1-0.48
					c-21.74,0.58-43.64,1.58-65,5.84c-5.29,1.12-10.55,2.47-15.5,4.46C258.94,35.99,257.91,33.4,257.91,33.4L257.91,33.4z"/>
			</g>
			<g style="clip-path:url(#SVGID_00000115494716420578447580000013737586909897462145_);">
				<path class="st8" d="M257.91,8.44c10.43-3.89,21.38-5.46,32.33-6.74c10.9-1.2,21.84-1.81,32.77-2.15
					c10.93-0.31,21.88-0.4,32.8-0.18c10.91,0.25,21.91,0.2,32.72,1.84c-15.67-1.72-33.27-0.51-49.1-0.48
					c-21.74,0.58-43.64,1.58-65,5.84c-5.29,1.12-10.55,2.47-15.5,4.46C258.94,11.03,257.91,8.44,257.91,8.44L257.91,8.44z"/>
			</g>
		</g>
		<g>
			<defs>
				<path id="SVGID_00000170976672368943148650000007967653713012877444_" d="M343.22-38.41c-13.46,0-39.98,0-53.11,2.11
					l17.96-20.43c0.85-3.7,2.98-7.39,8.38-7.39c4.77,0,48.83,0,53.6,0c5.39,0,7.52,3.69,8.38,7.39l17.96,20.43
					C383.25-38.41,356.68-38.41,343.22-38.41z"/>
			</defs>
			<clipPath id="SVGID_00000073715599708729355730000003329582486929886908_">
				<use xlink:href="#SVGID_00000170976672368943148650000007967653713012877444_"  style="overflow:visible;"/>
			</clipPath>
			
				<line style="clip-path:url(#SVGID_00000073715599708729355730000003329582486929886908_);fill:none;stroke:#244662;stroke-width:1.1142;stroke-miterlimit:10;" x1="381.12" y1="-56.16" x2="303.3" y2="-56.16"/>
			
				<line style="clip-path:url(#SVGID_00000073715599708729355730000003329582486929886908_);fill:none;stroke:#244662;stroke-width:0.5571;stroke-miterlimit:10;" x1="381.12" y1="-54.01" x2="303.3" y2="-54.01"/>
			
				<path style="clip-path:url(#SVGID_00000073715599708729355730000003329582486929886908_);fill:none;stroke:#244662;stroke-width:0.5571;stroke-miterlimit:10;" d="
				M395.62-37.83c0,0-16.34-2.37-52.49-2.37s-52.42,2.37-52.42,2.37"/>
		</g>
		<g>
			<defs>
				<path id="SVGID_00000173854353443481159440000003489091373490745750_" d="M249.6,127.37h93.62h93.62c0,0,0.16-6.38-3.36-6.38
					l3-36.69c0-3.01-3.52-5.57-8.28-7.66v0l0,0c0-3.24,1.32-5.12,3.79-6.92c3.25-2.36,3.94-4.44,3.94-8.61
					c0-3.6-3.26-6.68-7.73-9.22v-0.23l0,0c0-3.24,1.32-5.12,3.79-6.92c3.25-2.36,3.94-4.44,3.94-8.61c0-3.6-3.26-6.68-7.73-9.22
					V26.7h0c0-3.24,1.32-5.12,3.79-6.91c3.25-2.36,3.94-4.44,3.94-8.61c0-3.6-3.26-6.68-7.73-9.21c0,0-2.56-2.01-2.48-5.14
					c0.1-4,2.48-5.22-0.71-9.71c-2.54-3.58-18.86-19.65-21.65-21.36c-2.41-1.47-5.51-1.84-6.97-2.06
					c-13.12-2.11-39.7-2.11-53.16-2.11s-40.01,0-53.13,2.11c-1.46,0.23-4.59,0.59-7,2.06c-2.79,1.7-26.36,25.09-28.91,28.66
					c-3.19,4.49,5.12,8.17,5.22,12.16c0.02,0.65,0.03,1.24,0.03,1.77v2.49c-4.47,2.54-7.73,5.62-7.73,9.22
					c0,4.16,0.68,6.24,3.94,8.61c2.47,1.79,3.79,3.68,3.79,6.92l0,0v0.23c-4.47,2.48-7.73,5.5-7.73,9.02c0,4.08,0.68,6.11,3.94,8.43
					c2.47,1.75,3.79,3.6,3.79,6.77h0v0.88c-4.47,2.52-7.73,5.59-7.73,9.17c0,4.14,0.68,6.21,3.94,8.57
					c2.47,1.78,3.79,3.66,3.79,6.88l0,0v0c-4.76,2.09-8.28,4.65-8.28,7.66l1.81,27.82C249.44,120.99,249.6,127.37,249.6,127.37z"/>
			</defs>
			<clipPath id="SVGID_00000040569690199522750030000018380704044985223087_">
				<use xlink:href="#SVGID_00000173854353443481159440000003489091373490745750_"  style="overflow:visible;"/>
			</clipPath>
			
				<polyline style="clip-path:url(#SVGID_00000040569690199522750030000018380704044985223087_);fill:none;stroke:#11293D;stroke-width:1.1142;stroke-miterlimit:10;" points="
				251.71,117.72 343.22,117.72 436.84,117.72 			"/>
		</g>
		<g>
			<path class="st6" d="M291.53,58.05c-10.87,2.21-30.08,4.91-37.1,13.94c0.22-1.78,1.4-3.31,2.67-4.52
				C264.77,60.83,281.54,58.64,291.53,58.05L291.53,58.05z"/>
		</g>
		<g>
			<path class="st6" d="M396.38,48.52c9.97,0.59,26.76,2.78,34.43,9.42c1.27,1.21,2.45,2.74,2.67,4.52
				C426.47,53.44,407.26,50.73,396.38,48.52L396.38,48.52z"/>
		</g>
		<g>
			<path class="st6" d="M396.38,73.8c9.97,0.59,26.76,2.78,34.43,9.42c1.27,1.21,2.45,2.74,2.67,4.52
				C426.47,78.72,407.26,76.02,396.38,73.8L396.38,73.8z"/>
		</g>
		<g>
			<path class="st6" d="M396.38,23.24c9.97,0.59,26.76,2.78,34.43,9.42c1.27,1.21,2.45,2.74,2.67,4.52
				C426.47,28.16,407.26,25.45,396.38,23.24L396.38,23.24z"/>
		</g>
		<g>
			<path class="st6" d="M396.38-1.11c9.97,0.59,26.76,2.78,34.43,9.42c1.27,1.21,2.45,2.74,2.67,4.52
				C426.47,3.81,407.26,1.1,396.38-1.11L396.38-1.11z"/>
		</g>
		<g>
			<path class="st6" d="M291.53,32.1c-10.87,2.21-30.08,4.91-37.1,13.94c0.22-1.78,1.4-3.31,2.67-4.52
				C264.77,34.88,281.54,32.69,291.53,32.1L291.53,32.1z"/>
		</g>
		<g>
			<path class="st6" d="M291.53,7.05c-10.87,2.21-30.08,4.91-37.1,13.94c0.22-1.78,1.4-3.31,2.67-4.52
				C264.77,9.82,281.54,7.63,291.53,7.05L291.53,7.05z"/>
		</g>
		<g>
			<path class="st6" d="M301.46-15.31c-14.16,1.47-28.8,3.18-41.69,9.55c-0.8,0.47-1.6,0.97-2.1,1.82c0.11-1.02,0.85-1.86,1.56-2.54
				C267.99-13.7,290.17-15.54,301.46-15.31L301.46-15.31z"/>
		</g>
	</g>
</g>
</svg>
