<?xml version="1.0" encoding="utf-8"?>
<!-- Generator: Adobe Illustrator 27.3.1, SVG Export Plug-In . SVG Version: 6.00 Build 0)  -->
<svg version="1.1" xmlns="http://www.w3.org/2000/svg" xmlns:xlink="http://www.w3.org/1999/xlink" x="0px" y="0px"
	 viewBox="0 0 100 100" style="enable-background:new 0 0 100 100;" xml:space="preserve">
<style type="text/css">
	.st0{fill:#FFFFFF;stroke:#336196;stroke-width:4.5802;stroke-miterlimit:10;}
	.st1{fill:#336196;}
	.st2{fill:#FFFFFF;stroke:#336196;stroke-width:4.4065;stroke-miterlimit:10;}
	.st3{fill:#336196;stroke:#336196;stroke-width:8.813;stroke-miterlimit:10;}
	.st4{fill:#FFFFFF;}
	.st5{fill:none;stroke:#336196;stroke-width:5.6664;stroke-linecap:round;stroke-linejoin:round;stroke-miterlimit:56;}
</style>
<g id="Off">
	<circle class="st0" cx="50" cy="50.1" r="46.7"/>
	<path class="st1" d="M68,50.7c-0.1-0.9-0.7-1.6-1.5-2l-10.5-5l7.6-15.8l0,0c0.5-0.7,0.6-1.7,0.2-2.5c-0.3-0.8-1.1-1.4-1.9-1.6
		c-0.9-0.2-1.8,0.1-2.4,0.7L33,47.2c-0.7,0.6-1,1.5-0.9,2.4c0.1,0.9,0.7,1.7,1.5,2l10.5,5l-7.6,15.8h0C36,73.1,36,74,36.3,74.8
		c0.3,0.8,1.1,1.4,1.9,1.5c0.8,0.2,1.7-0.1,2.3-0.7L67.1,53C67.8,52.5,68.2,51.6,68,50.7L68,50.7z"/>
</g>
<g id="On">
</g>
<g id="Nucleaire">
</g>
<g id="Solaire">
</g>
<g id="Hydro">
</g>
<g id="Eolien">
</g>
</svg>
