<?xml version="1.0" encoding="utf-8"?>
<!-- Generator: Adobe Illustrator 27.4.1, SVG Export Plug-In . SVG Version: 6.00 Build 0)  -->
<svg version="1.1" id="Layer_1" xmlns="http://www.w3.org/2000/svg" xmlns:xlink="http://www.w3.org/1999/xlink" x="0px" y="0px"
	 viewBox="0 0 100 100" style="enable-background:new 0 0 100 100;" xml:space="preserve">
<style type="text/css">
	.st0{fill:#336196;stroke:#336196;stroke-width:4.5842;stroke-miterlimit:10;}
	.st1{fill:#FFFFFF;}
</style>
<g id="On">
</g>
<g id="Nucleaire">
</g>
<g id="Solaire">
</g>
<g id="Hydro">
</g>
<g id="Eolien">
</g>
<circle class="st0" cx="50" cy="50.1" r="46.7"/>
<path class="st1" d="M58.1,42V29.6c0-1-0.9-1.9-1.9-1.9H43.7c-1,0-1.9,0.9-1.9,1.9V42H29.5c-1,0-1.9,0.9-1.9,1.9v12.5
	c0,1,0.9,1.9,1.9,1.9h12.4v12.4c0,1,0.9,1.9,1.9,1.9h12.5c1,0,1.9-0.9,1.9-1.9V58.3h12.4c1,0,1.9-0.9,1.9-1.9V43.9
	c0-1-0.9-1.9-1.9-1.9H58.1z"/>
</svg>
